%TF.GenerationSoftware,KiCad,Pcbnew,7.0.1*%
%TF.CreationDate,2023-04-26T19:42:46-04:00*%
%TF.ProjectId,maynuo_banana_adapter,6d61796e-756f-45f6-9261-6e616e615f61,rev?*%
%TF.SameCoordinates,PX5d07eb0PY4aa0010*%
%TF.FileFunction,Copper,L2,Bot*%
%TF.FilePolarity,Positive*%
%FSLAX46Y46*%
G04 Gerber Fmt 4.6, Leading zero omitted, Abs format (unit mm)*
G04 Created by KiCad (PCBNEW 7.0.1) date 2023-04-26 19:42:46*
%MOMM*%
%LPD*%
G01*
G04 APERTURE LIST*
%TA.AperFunction,ComponentPad*%
%ADD10C,2.800000*%
%TD*%
%TA.AperFunction,ComponentPad*%
%ADD11C,11.000000*%
%TD*%
G04 APERTURE END LIST*
D10*
%TO.P,J1,1,Pin_1*%
%TO.N,Net-(J1-Pin_1)*%
X5595000Y-31200000D03*
X7975000Y-28820000D03*
X7975000Y-33580000D03*
X10355000Y-31200000D03*
%TD*%
D11*
%TO.P,H1,1,1*%
%TO.N,Net-(J1-Pin_1)*%
X22975000Y-13000000D03*
%TD*%
D10*
%TO.P,J2,1,Pin_1*%
%TO.N,Net-(J2-Pin_1)*%
X65595000Y-31200000D03*
X67975000Y-28820000D03*
X67975000Y-33580000D03*
X70355000Y-31200000D03*
%TD*%
D11*
%TO.P,H2,1,1*%
%TO.N,Net-(J2-Pin_1)*%
X52975000Y-13000000D03*
%TD*%
%TA.AperFunction,Conductor*%
%TO.N,Net-(J1-Pin_1)*%
G36*
X37413000Y-1017113D02*
G01*
X37458387Y-1062500D01*
X37475000Y-1124500D01*
X37475000Y-38075500D01*
X37458387Y-38137500D01*
X37413000Y-38182887D01*
X37351000Y-38199500D01*
X7977262Y-38199500D01*
X7972731Y-38199417D01*
X7606456Y-38186025D01*
X7606290Y-38185974D01*
X7606289Y-38186019D01*
X7465645Y-38180686D01*
X7456777Y-38180031D01*
X7159625Y-38147322D01*
X7159125Y-38147265D01*
X6947850Y-38123141D01*
X6939385Y-38121878D01*
X6659801Y-38070215D01*
X6658978Y-38070060D01*
X6435772Y-38027253D01*
X6427751Y-38025437D01*
X6158573Y-37955036D01*
X6157438Y-37954733D01*
X5932286Y-37893561D01*
X5924745Y-37891252D01*
X5664640Y-37802479D01*
X5663213Y-37801983D01*
X5440164Y-37722811D01*
X5433128Y-37720069D01*
X5182131Y-37613360D01*
X5180438Y-37612625D01*
X4962135Y-37515954D01*
X4955625Y-37512842D01*
X4714319Y-37388723D01*
X4712387Y-37387708D01*
X4500828Y-37274137D01*
X4494859Y-37270716D01*
X4264096Y-37129816D01*
X4261961Y-37128482D01*
X4058827Y-36998719D01*
X4053406Y-36995052D01*
X4047493Y-36990819D01*
X3834092Y-36838066D01*
X3831833Y-36836409D01*
X3781494Y-36798595D01*
X3638519Y-36691192D01*
X3633650Y-36687340D01*
X3426839Y-36515137D01*
X3424415Y-36513065D01*
X3242294Y-36353314D01*
X3237971Y-36349337D01*
X3044545Y-36162740D01*
X3042063Y-36160277D01*
X2872286Y-35986912D01*
X2868500Y-35982869D01*
X2689422Y-35782874D01*
X2686893Y-35779959D01*
X2530576Y-35594052D01*
X2527327Y-35590019D01*
X2363401Y-35377573D01*
X2360949Y-35374281D01*
X2219027Y-35176888D01*
X2216298Y-35172930D01*
X2160603Y-35088677D01*
X6819874Y-35088677D01*
X6819875Y-35088678D01*
X6945157Y-35182463D01*
X7183692Y-35312712D01*
X7438345Y-35407694D01*
X7703910Y-35465463D01*
X7975000Y-35484853D01*
X8246089Y-35465463D01*
X8511654Y-35407694D01*
X8766307Y-35312712D01*
X9004839Y-35182465D01*
X9130124Y-35088677D01*
X7975001Y-33933553D01*
X7975000Y-33933553D01*
X6819874Y-35088677D01*
X2160603Y-35088677D01*
X2068384Y-34949171D01*
X2065963Y-34945359D01*
X1939430Y-34737842D01*
X1937142Y-34733931D01*
X1805956Y-34499957D01*
X1803681Y-34495708D01*
X1693197Y-34279147D01*
X1691396Y-34275465D01*
X1577607Y-34032452D01*
X1575529Y-34027761D01*
X1481833Y-33803630D01*
X1480400Y-33800047D01*
X1396358Y-33580002D01*
X1384604Y-33549227D01*
X1382760Y-33544057D01*
X1306352Y-33313617D01*
X1305351Y-33310447D01*
X1228040Y-33053010D01*
X1226484Y-33047347D01*
X1197899Y-32932712D01*
X1167850Y-32812207D01*
X1167129Y-32809143D01*
X1144804Y-32708677D01*
X4439874Y-32708677D01*
X4439875Y-32708678D01*
X4565157Y-32802463D01*
X4803692Y-32932712D01*
X5058345Y-33027694D01*
X5323910Y-33085463D01*
X5595000Y-33104853D01*
X5866089Y-33085463D01*
X5963119Y-33064356D01*
X6024411Y-33066545D01*
X6077158Y-33097840D01*
X6108454Y-33150586D01*
X6110643Y-33211879D01*
X6089536Y-33308908D01*
X6070146Y-33580000D01*
X6089536Y-33851089D01*
X6147305Y-34116654D01*
X6242287Y-34371307D01*
X6372536Y-34609842D01*
X6466320Y-34735124D01*
X6466321Y-34735124D01*
X7621445Y-33580002D01*
X8328553Y-33580002D01*
X9483677Y-34735124D01*
X9577465Y-34609839D01*
X9707712Y-34371307D01*
X9802694Y-34116654D01*
X9860463Y-33851089D01*
X9879853Y-33580000D01*
X9860463Y-33308910D01*
X9839356Y-33211880D01*
X9841545Y-33150587D01*
X9872841Y-33097841D01*
X9925587Y-33066545D01*
X9986880Y-33064356D01*
X10083910Y-33085463D01*
X10355000Y-33104853D01*
X10626089Y-33085463D01*
X10891654Y-33027694D01*
X11146307Y-32932712D01*
X11384839Y-32802465D01*
X11510124Y-32708677D01*
X10355001Y-31553553D01*
X10355000Y-31553553D01*
X9487250Y-32421300D01*
X9487244Y-32421310D01*
X8328553Y-33579998D01*
X8328553Y-33580002D01*
X7621445Y-33580002D01*
X7621446Y-33580001D01*
X7621446Y-33579999D01*
X6443877Y-32402431D01*
X6443874Y-32402427D01*
X5595000Y-31553553D01*
X4439874Y-32708677D01*
X1144804Y-32708677D01*
X1108753Y-32546437D01*
X1107565Y-32540379D01*
X1066988Y-32301962D01*
X1066560Y-32299266D01*
X1027430Y-32032351D01*
X1026661Y-32025925D01*
X1004316Y-31785777D01*
X1004112Y-31783306D01*
X1000725Y-31736654D01*
X984534Y-31513656D01*
X984229Y-31506856D01*
X980149Y-31266655D01*
X980132Y-31264699D01*
X980172Y-31200000D01*
X3690146Y-31200000D01*
X3709536Y-31471089D01*
X3767305Y-31736654D01*
X3862287Y-31991307D01*
X3992536Y-32229842D01*
X4086320Y-32355124D01*
X4086321Y-32355124D01*
X5241446Y-31200001D01*
X5948553Y-31200001D01*
X6779990Y-32031436D01*
X7974998Y-33226446D01*
X7974999Y-33226446D01*
X9170010Y-32031436D01*
X10001445Y-31200001D01*
X10708553Y-31200001D01*
X11863677Y-32355124D01*
X11957465Y-32229839D01*
X12087712Y-31991307D01*
X12182694Y-31736654D01*
X12240463Y-31471089D01*
X12259853Y-31200000D01*
X12240463Y-30928910D01*
X12182694Y-30663345D01*
X12087712Y-30408692D01*
X11957463Y-30170157D01*
X11863678Y-30044875D01*
X11863677Y-30044874D01*
X10708553Y-31200000D01*
X10708553Y-31200001D01*
X10001445Y-31200001D01*
X10001446Y-31200000D01*
X8823877Y-30022431D01*
X8823874Y-30022427D01*
X7975000Y-29173553D01*
X7107250Y-30041300D01*
X7107244Y-30041310D01*
X5948553Y-31200000D01*
X5948553Y-31200001D01*
X5241446Y-31200001D01*
X5241446Y-31199999D01*
X4086321Y-30044875D01*
X3992534Y-30170162D01*
X3862286Y-30408692D01*
X3767305Y-30663345D01*
X3709536Y-30928910D01*
X3690146Y-31200000D01*
X980172Y-31200000D01*
X980298Y-30993139D01*
X980509Y-30986037D01*
X994554Y-30747499D01*
X994653Y-30746008D01*
X1014755Y-30473754D01*
X1015531Y-30466324D01*
X1047307Y-30231692D01*
X1047495Y-30230367D01*
X1087712Y-29958358D01*
X1089102Y-29950650D01*
X1137933Y-29721999D01*
X1137969Y-29721834D01*
X1144788Y-29691321D01*
X4439875Y-29691321D01*
X5595000Y-30846446D01*
X6790010Y-29651436D01*
X7621446Y-28819999D01*
X8328553Y-28819999D01*
X10355000Y-30846446D01*
X10355001Y-30846446D01*
X11510124Y-29691321D01*
X11510124Y-29691320D01*
X11384842Y-29597536D01*
X11146307Y-29467287D01*
X10891654Y-29372305D01*
X10626089Y-29314536D01*
X10355000Y-29295146D01*
X10083908Y-29314536D01*
X9986879Y-29335643D01*
X9925586Y-29333454D01*
X9872840Y-29302158D01*
X9841545Y-29249411D01*
X9839356Y-29188119D01*
X9860463Y-29091089D01*
X9879853Y-28819999D01*
X9860463Y-28548910D01*
X9802694Y-28283345D01*
X9707712Y-28028692D01*
X9577463Y-27790157D01*
X9483678Y-27664875D01*
X9483678Y-27664874D01*
X8328553Y-28819999D01*
X7621446Y-28819999D01*
X7621446Y-28819998D01*
X6466321Y-27664875D01*
X6372534Y-27790162D01*
X6242286Y-28028692D01*
X6147305Y-28283345D01*
X6089536Y-28548910D01*
X6070146Y-28819999D01*
X6089536Y-29091091D01*
X6110643Y-29188120D01*
X6108454Y-29249412D01*
X6077158Y-29302158D01*
X6024412Y-29333454D01*
X5963120Y-29335643D01*
X5866091Y-29314536D01*
X5595000Y-29295146D01*
X5323910Y-29314536D01*
X5058345Y-29372305D01*
X4803692Y-29467286D01*
X4565162Y-29597534D01*
X4439875Y-29691321D01*
X1144788Y-29691321D01*
X1198785Y-29449713D01*
X1200826Y-29441820D01*
X1265048Y-29223583D01*
X1347350Y-28950738D01*
X1350073Y-28942721D01*
X1425557Y-28743388D01*
X1532598Y-28464145D01*
X1536048Y-28456031D01*
X1595566Y-28328881D01*
X1595595Y-28328895D01*
X1595632Y-28328737D01*
X1751651Y-27996594D01*
X1753629Y-27992576D01*
X2104571Y-27311321D01*
X6819875Y-27311321D01*
X7975000Y-28466446D01*
X7975001Y-28466446D01*
X9130124Y-27311321D01*
X9130124Y-27311320D01*
X9004842Y-27217536D01*
X8766307Y-27087287D01*
X8511654Y-26992305D01*
X8246089Y-26934536D01*
X7975000Y-26915146D01*
X7703910Y-26934536D01*
X7438345Y-26992305D01*
X7183692Y-27087286D01*
X6945162Y-27217534D01*
X6819875Y-27311321D01*
X2104571Y-27311321D01*
X12306945Y-7506314D01*
X12308514Y-7503369D01*
X12475076Y-7200689D01*
X12475108Y-7200707D01*
X12475158Y-7200538D01*
X12475319Y-7200245D01*
X12627292Y-6925017D01*
X12630579Y-6919421D01*
X12813901Y-6625596D01*
X12985302Y-6353506D01*
X12988696Y-6348408D01*
X13186943Y-6066310D01*
X13187180Y-6065975D01*
X13374811Y-5803030D01*
X13378274Y-5798413D01*
X13591427Y-5527888D01*
X13591743Y-5527491D01*
X13794565Y-5275350D01*
X13798124Y-5271124D01*
X14025399Y-5013081D01*
X14026165Y-5012222D01*
X14243320Y-4772023D01*
X14246805Y-4768326D01*
X14487768Y-4523204D01*
X14488835Y-4522136D01*
X14719603Y-4294711D01*
X14723025Y-4291468D01*
X14976822Y-4060101D01*
X14978405Y-4058685D01*
X15221910Y-3844913D01*
X15225194Y-3842132D01*
X15491291Y-3624988D01*
X15493257Y-3623419D01*
X15748630Y-3424063D01*
X15751798Y-3421673D01*
X16029299Y-3219475D01*
X16031627Y-3217822D01*
X16298187Y-3033419D01*
X16301148Y-3031436D01*
X16589279Y-2844742D01*
X16592057Y-2842996D01*
X16868732Y-2674295D01*
X16871518Y-2672648D01*
X17169427Y-2502005D01*
X17172574Y-2500266D01*
X17458579Y-2347744D01*
X17461123Y-2346428D01*
X17767896Y-2192361D01*
X17771466Y-2190641D01*
X18065756Y-2054860D01*
X18067988Y-2053860D01*
X18382899Y-1916740D01*
X18386856Y-1915102D01*
X18688412Y-1796526D01*
X18690256Y-1795820D01*
X19012292Y-1676106D01*
X19016723Y-1674556D01*
X19324513Y-1573579D01*
X19326178Y-1573048D01*
X19654315Y-1471128D01*
X19659189Y-1469726D01*
X19972020Y-1386718D01*
X19973261Y-1386397D01*
X20306799Y-1302508D01*
X20312118Y-1301297D01*
X20629023Y-1236485D01*
X20629723Y-1236345D01*
X20967749Y-1170759D01*
X20973468Y-1169790D01*
X21293117Y-1123409D01*
X21293178Y-1123400D01*
X21635096Y-1076301D01*
X21641212Y-1075615D01*
X21961377Y-1047865D01*
X22306696Y-1019439D01*
X22313204Y-1019077D01*
X22627494Y-1010017D01*
X22973362Y-1000545D01*
X22976745Y-1000500D01*
X37351000Y-1000500D01*
X37413000Y-1017113D01*
G37*
%TD.AperFunction*%
%TD*%
%TA.AperFunction,Conductor*%
%TO.N,Net-(J2-Pin_1)*%
G36*
X52923142Y-1000501D02*
G01*
X52973286Y-1000501D01*
X52976679Y-1000546D01*
X53321933Y-1010001D01*
X53636831Y-1019079D01*
X53643305Y-1019439D01*
X53988370Y-1047844D01*
X54308795Y-1075617D01*
X54314937Y-1076306D01*
X54656296Y-1123328D01*
X54656872Y-1123409D01*
X54976541Y-1169793D01*
X54982282Y-1170766D01*
X55320196Y-1236330D01*
X55320813Y-1236453D01*
X55637889Y-1301299D01*
X55643244Y-1302519D01*
X55961664Y-1382605D01*
X55976532Y-1386345D01*
X55977918Y-1386702D01*
X56290843Y-1469735D01*
X56295751Y-1471149D01*
X56502327Y-1535312D01*
X56623691Y-1573008D01*
X56625501Y-1573585D01*
X56933276Y-1674557D01*
X56937737Y-1676117D01*
X57259599Y-1795767D01*
X57261592Y-1796529D01*
X57563118Y-1915093D01*
X57567206Y-1916786D01*
X57881986Y-2053849D01*
X57884237Y-2054858D01*
X58178462Y-2190609D01*
X58182147Y-2192384D01*
X58488796Y-2346389D01*
X58491494Y-2347785D01*
X58777381Y-2500244D01*
X58780664Y-2502059D01*
X58921809Y-2582906D01*
X59078432Y-2672619D01*
X59081300Y-2674315D01*
X59357943Y-2842997D01*
X59360745Y-2844758D01*
X59484699Y-2925074D01*
X59648752Y-3031372D01*
X59651867Y-3033457D01*
X59918374Y-3217823D01*
X59920708Y-3219481D01*
X60198141Y-3421629D01*
X60201401Y-3424089D01*
X60456724Y-3623407D01*
X60458801Y-3625064D01*
X60724749Y-3842087D01*
X60728118Y-3844939D01*
X60872013Y-3971263D01*
X60971530Y-4058629D01*
X60973261Y-4060178D01*
X61226929Y-4291427D01*
X61230430Y-4294746D01*
X61461048Y-4522024D01*
X61462437Y-4523414D01*
X61703138Y-4768269D01*
X61706692Y-4772039D01*
X61923715Y-5012092D01*
X61924786Y-5013292D01*
X62151874Y-5271124D01*
X62155441Y-5275361D01*
X62358077Y-5527269D01*
X62358807Y-5528185D01*
X62571677Y-5798352D01*
X62575215Y-5803069D01*
X62762713Y-6065828D01*
X62763229Y-6066557D01*
X62961266Y-6348355D01*
X62964731Y-6353560D01*
X63136018Y-6625471D01*
X63136303Y-6625925D01*
X63319388Y-6919369D01*
X63322736Y-6925069D01*
X63474924Y-7200689D01*
X63474972Y-7200776D01*
X63481285Y-7212247D01*
X63641471Y-7503341D01*
X63643066Y-7506337D01*
X74196363Y-27992565D01*
X74198364Y-27996631D01*
X74354362Y-28328729D01*
X74354399Y-28328897D01*
X74354434Y-28328881D01*
X74413940Y-28456007D01*
X74417419Y-28464193D01*
X74524332Y-28743103D01*
X74524511Y-28743572D01*
X74599909Y-28942677D01*
X74602662Y-28950781D01*
X74684807Y-29223105D01*
X74685046Y-29223909D01*
X74749163Y-29441789D01*
X74751222Y-29449749D01*
X74811931Y-29721388D01*
X74812153Y-29722408D01*
X74848080Y-29890632D01*
X74860886Y-29950597D01*
X74862286Y-29958357D01*
X74902503Y-30230364D01*
X74902715Y-30231860D01*
X74934462Y-30466283D01*
X74935247Y-30473793D01*
X74955330Y-30745794D01*
X74955453Y-30747637D01*
X74969487Y-30985995D01*
X74969701Y-30993208D01*
X74969866Y-31264552D01*
X74969848Y-31266733D01*
X74965770Y-31506822D01*
X74965462Y-31513696D01*
X74945887Y-31783299D01*
X74945680Y-31785807D01*
X74923341Y-32025888D01*
X74922563Y-32032386D01*
X74883446Y-32299209D01*
X74882999Y-32302028D01*
X74842441Y-32540337D01*
X74841247Y-32546430D01*
X74782868Y-32809151D01*
X74782136Y-32812255D01*
X74723515Y-33047342D01*
X74721959Y-33053005D01*
X74644676Y-33310352D01*
X74643615Y-33313713D01*
X74567246Y-33544032D01*
X74565386Y-33549248D01*
X74469603Y-33800034D01*
X74468170Y-33803618D01*
X74374480Y-34027734D01*
X74372373Y-34032491D01*
X74258618Y-34275429D01*
X74256775Y-34279198D01*
X74146325Y-34495693D01*
X74144028Y-34499984D01*
X74012868Y-34733911D01*
X74010580Y-34737823D01*
X73884037Y-34945356D01*
X73881608Y-34949180D01*
X73733707Y-35172920D01*
X73730944Y-35176927D01*
X73589084Y-35374233D01*
X73586578Y-35377597D01*
X73422683Y-35590005D01*
X73419418Y-35594057D01*
X73263110Y-35779953D01*
X73260581Y-35782868D01*
X73081498Y-35982868D01*
X73077712Y-35986910D01*
X72907938Y-36160273D01*
X72905437Y-36162757D01*
X72712049Y-36349317D01*
X72707726Y-36353293D01*
X72525555Y-36513088D01*
X72523131Y-36515160D01*
X72316360Y-36687330D01*
X72311491Y-36691182D01*
X72118138Y-36836428D01*
X72115837Y-36838115D01*
X71896613Y-36995037D01*
X71891192Y-36998705D01*
X71688025Y-37128489D01*
X71685890Y-37129823D01*
X71455146Y-37270712D01*
X71449177Y-37274133D01*
X71237568Y-37387730D01*
X71235636Y-37388745D01*
X70994383Y-37512838D01*
X70987874Y-37515950D01*
X70769560Y-37612627D01*
X70767866Y-37613362D01*
X70516876Y-37720067D01*
X70509840Y-37722809D01*
X70286765Y-37801990D01*
X70285338Y-37802486D01*
X70025247Y-37891254D01*
X70017706Y-37893563D01*
X69792591Y-37954724D01*
X69791455Y-37955027D01*
X69522234Y-38025438D01*
X69514215Y-38027253D01*
X69291165Y-38070032D01*
X69290341Y-38070188D01*
X69010614Y-38121878D01*
X69002149Y-38123141D01*
X68790874Y-38147265D01*
X68790374Y-38147322D01*
X68493222Y-38180031D01*
X68484354Y-38180686D01*
X68343711Y-38186019D01*
X68343543Y-38186025D01*
X67977270Y-38199417D01*
X67972739Y-38199500D01*
X38599000Y-38199500D01*
X38537000Y-38182887D01*
X38491613Y-38137500D01*
X38475000Y-38075500D01*
X38475000Y-35088677D01*
X66819874Y-35088677D01*
X66819875Y-35088678D01*
X66945157Y-35182463D01*
X67183692Y-35312712D01*
X67438345Y-35407694D01*
X67703910Y-35465463D01*
X67975000Y-35484853D01*
X68246089Y-35465463D01*
X68511654Y-35407694D01*
X68766307Y-35312712D01*
X69004839Y-35182465D01*
X69130124Y-35088677D01*
X67975001Y-33933553D01*
X67975000Y-33933553D01*
X66819874Y-35088677D01*
X38475000Y-35088677D01*
X38475000Y-32708677D01*
X64439874Y-32708677D01*
X64439875Y-32708678D01*
X64565157Y-32802463D01*
X64803692Y-32932712D01*
X65058345Y-33027694D01*
X65323910Y-33085463D01*
X65595000Y-33104853D01*
X65866089Y-33085463D01*
X65963119Y-33064356D01*
X66024411Y-33066545D01*
X66077158Y-33097840D01*
X66108454Y-33150586D01*
X66110643Y-33211879D01*
X66089536Y-33308908D01*
X66070146Y-33579999D01*
X66089536Y-33851089D01*
X66147305Y-34116654D01*
X66242287Y-34371307D01*
X66372536Y-34609842D01*
X66466320Y-34735124D01*
X66466321Y-34735124D01*
X67621446Y-33580001D01*
X67621446Y-33580000D01*
X68328554Y-33580000D01*
X69483677Y-34735124D01*
X69577465Y-34609839D01*
X69707712Y-34371307D01*
X69802694Y-34116654D01*
X69860463Y-33851089D01*
X69879853Y-33579999D01*
X69860463Y-33308910D01*
X69839356Y-33211880D01*
X69841545Y-33150587D01*
X69872841Y-33097841D01*
X69925587Y-33066545D01*
X69986880Y-33064356D01*
X70083910Y-33085463D01*
X70355000Y-33104853D01*
X70626089Y-33085463D01*
X70891654Y-33027694D01*
X71146307Y-32932712D01*
X71384839Y-32802465D01*
X71510124Y-32708677D01*
X70355001Y-31553553D01*
X70355000Y-31553553D01*
X69487248Y-32421303D01*
X69487244Y-32421310D01*
X68328554Y-33580000D01*
X67621446Y-33580000D01*
X66443877Y-32402431D01*
X66443874Y-32402427D01*
X65595000Y-31553553D01*
X64439874Y-32708677D01*
X38475000Y-32708677D01*
X38475000Y-31199999D01*
X63690146Y-31199999D01*
X63709536Y-31471089D01*
X63767305Y-31736654D01*
X63862287Y-31991307D01*
X63992536Y-32229842D01*
X64086320Y-32355124D01*
X64086321Y-32355124D01*
X65241446Y-31200001D01*
X65948553Y-31200001D01*
X66779990Y-32031436D01*
X67975000Y-33226446D01*
X70001445Y-31200001D01*
X70708553Y-31200001D01*
X71863677Y-32355124D01*
X71957465Y-32229839D01*
X72087712Y-31991307D01*
X72182694Y-31736654D01*
X72240463Y-31471089D01*
X72259853Y-31199999D01*
X72240463Y-30928910D01*
X72182694Y-30663345D01*
X72087712Y-30408692D01*
X71957463Y-30170157D01*
X71863678Y-30044875D01*
X71863677Y-30044874D01*
X70708553Y-31200000D01*
X70708553Y-31200001D01*
X70001445Y-31200001D01*
X70001446Y-31200000D01*
X68823877Y-30022431D01*
X68823874Y-30022427D01*
X67975000Y-29173553D01*
X67107248Y-30041303D01*
X67107244Y-30041310D01*
X65948553Y-31199999D01*
X65948553Y-31200001D01*
X65241446Y-31200001D01*
X65241446Y-31199999D01*
X64086321Y-30044875D01*
X63992534Y-30170162D01*
X63862286Y-30408692D01*
X63767305Y-30663345D01*
X63709536Y-30928910D01*
X63690146Y-31199999D01*
X38475000Y-31199999D01*
X38475000Y-29691321D01*
X64439875Y-29691321D01*
X65595000Y-30846446D01*
X66790010Y-29651436D01*
X67621446Y-28819999D01*
X68328553Y-28819999D01*
X70355000Y-30846446D01*
X70355001Y-30846446D01*
X71510124Y-29691321D01*
X71510124Y-29691320D01*
X71384842Y-29597536D01*
X71146307Y-29467287D01*
X70891654Y-29372305D01*
X70626089Y-29314536D01*
X70355000Y-29295146D01*
X70083908Y-29314536D01*
X69986879Y-29335643D01*
X69925586Y-29333454D01*
X69872840Y-29302158D01*
X69841545Y-29249411D01*
X69839356Y-29188119D01*
X69860463Y-29091089D01*
X69879853Y-28819999D01*
X69860463Y-28548910D01*
X69802694Y-28283345D01*
X69707712Y-28028692D01*
X69577463Y-27790157D01*
X69483678Y-27664875D01*
X69483678Y-27664874D01*
X68328553Y-28819999D01*
X67621446Y-28819999D01*
X67621446Y-28819998D01*
X66466321Y-27664875D01*
X66372534Y-27790162D01*
X66242286Y-28028692D01*
X66147305Y-28283345D01*
X66089536Y-28548910D01*
X66070146Y-28819999D01*
X66089536Y-29091091D01*
X66110643Y-29188120D01*
X66108454Y-29249412D01*
X66077158Y-29302158D01*
X66024412Y-29333454D01*
X65963120Y-29335643D01*
X65866091Y-29314536D01*
X65595000Y-29295146D01*
X65323910Y-29314536D01*
X65058345Y-29372305D01*
X64803692Y-29467286D01*
X64565162Y-29597534D01*
X64439875Y-29691321D01*
X38475000Y-29691321D01*
X38475000Y-27311321D01*
X66819875Y-27311321D01*
X67975000Y-28466446D01*
X67975001Y-28466446D01*
X69130124Y-27311321D01*
X69130124Y-27311320D01*
X69004842Y-27217536D01*
X68766307Y-27087287D01*
X68511654Y-26992305D01*
X68246089Y-26934536D01*
X67975000Y-26915146D01*
X67703910Y-26934536D01*
X67438345Y-26992305D01*
X67183692Y-27087286D01*
X66945162Y-27217534D01*
X66819875Y-27311321D01*
X38475000Y-27311321D01*
X38475000Y-1124500D01*
X38491613Y-1062500D01*
X38537000Y-1017113D01*
X38599000Y-1000500D01*
X52923137Y-1000500D01*
X52923142Y-1000501D01*
G37*
%TD.AperFunction*%
%TD*%
M02*
